
<svg width="90px" height="15px" viewBox="0 0 90 15" version="1.1" xmlns="http://www.w3.org/2000/svg" xmlns:xlink="http://www.w3.org/1999/xlink">
    <!-- Generator: Sketch 45.1 (43504) - http://www.bohemiancoding.com/sketch -->
    <desc>Created with Sketch.</desc>
    <defs></defs>
    <g id="Page-1" stroke="none" stroke-width="1" fill="none" fill-rule="evenodd">
        <g id="Launch-Page" transform="translate(-334.000000, -323.000000)" fill-rule="nonzero" fill="#FFFFFF">
            <g id="Group-5" transform="translate(51.000000, 279.000000)">
                <g id="Group-2">
                    <g id="Group-4" transform="translate(100.000000, 0.000000)">
                        <g id="noun_914343_cc" transform="translate(228.000000, 51.500000) scale(-1, 1) rotate(-90.000000) translate(-228.000000, -51.500000) translate(220.500000, 6.500000)">
                            <g id="Group">
                                <g id="Shape">
                                    <g>
                                        <path d="M8.98580902,88.3658469 L8.98580902,71.8918637 C8.98580902,71.0647428 8.31529507,70.3942288 7.48817418,70.3942288 C6.6610533,70.3942288 5.99053935,71.0647428 5.99053935,71.8918637 L5.99053935,88.3658469 C5.99053935,89.1929677 6.6610533,89.8634817 7.48817418,89.8634817 C8.31529507,89.8634817 8.98580902,89.1929677 8.98580902,88.3658469 Z"></path>
                                        <path d="M11.9810787,38.9438972 L11.9810787,59.910785 C11.9810787,61.5652451 10.6402691,62.9060546 8.98580902,62.9060546 L5.99053935,62.9060546 C4.3360793,62.9060546 2.99526967,61.5652451 2.99526967,59.910785 L2.99526967,38.9438972 L11.9810787,38.9438972 Z M8.98580902,65.9013243 C12.2945108,65.9013243 14.9763484,63.2194867 14.9763484,59.910785 L14.9763484,37.4462624 C14.9763484,36.6191416 14.3058344,35.9486276 13.4787135,35.9486276 L1.49763484,35.9486276 C0.670513955,35.9486276 0,36.6191416 0,37.4462624 L0,59.910785 C0,63.2194867 2.68183754,65.9013243 5.99053935,65.9013243 L8.98580902,65.9013243 Z"></path>
                                        <path d="M2.99526967,38.9444963 L11.9810787,38.9444963 C12.8081996,38.9444963 13.4787135,38.2739823 13.4787135,37.4468615 L13.4787135,14.9823389 C13.4787135,14.155218 12.8081996,13.4847041 11.9810787,13.4847041 L2.99526967,13.4847041 C2.16814879,13.4847041 1.49763484,14.155218 1.49763484,14.9823389 L1.49763484,37.4468615 C1.49763484,38.2739823 2.16814879,38.9444963 2.99526967,38.9444963 Z M4.49290451,16.4799737 L10.4834439,16.4799737 L10.4834439,35.9492266 L4.49290451,35.9492266 L4.49290451,16.4799737 Z"></path>
                                        <path d="M5.99053935,13.484105 L5.99053935,4.498296 C5.99053935,3.67202802 6.66190621,3.00066116 7.48817418,3.00066116 C8.31444216,3.00066116 8.98580902,3.67202802 8.98580902,4.498296 L8.98580902,13.484105 L5.99053935,13.484105 Z M10.4834439,16.4793747 C11.3105647,16.4793747 11.9810787,15.8088607 11.9810787,14.9817399 L11.9810787,4.498296 C11.9810787,2.01778625 9.96868393,0.00539148541 7.48817418,0.00539148541 C5.00766444,0.00539148541 2.99526967,2.01778625 2.99526967,4.498296 L2.99526967,14.9817399 C2.99526967,15.8088607 3.66578363,16.4793747 4.49290451,16.4793747 L10.4834439,16.4793747 Z"></path>
                                        <path d="M8.98580902,62.9060546 L5.99053935,62.9060546 C5.67494882,62.9060546 5.34915679,62.8434869 4.99604441,62.717536 C4.02081845,62.3696847 2.99526967,63.0927183 2.99526967,64.1281247 L2.99526967,69.6379232 C2.99526967,71.7099641 4.67557491,73.3894985 6.74834257,73.3894985 L8.22800579,73.3894985 C10.3007735,73.3894985 11.9810787,71.7099641 11.9810787,69.6379232 L11.9810787,64.1281247 C11.9810787,63.0927183 10.9555299,62.3696847 9.98030395,62.717536 C9.62719158,62.8434869 9.30139954,62.9060546 8.98580902,62.9060546 Z M8.98580902,65.9013243 L8.98580902,69.6379232 C8.98580902,70.0554145 8.64683926,70.3942288 8.22800579,70.3942288 L6.74834257,70.3942288 C6.3295091,70.3942288 5.99053935,70.0554145 5.99053935,69.6379232 L5.99053935,65.9013243 L8.98580902,65.9013243 Z"></path>
                                    </g>
                                </g>
                            </g>
                        </g>
                    </g>
                </g>
            </g>
        </g>
    </g>
</svg>
