
<svg width="550px" height="17px" viewBox="0 0 568 17" version="1.1" xmlns="http://www.w3.org/2000/svg" xmlns:xlink="http://www.w3.org/1999/xlink">
    <!-- Generator: Sketch 45.1 (43504) - http://www.bohemiancoding.com/sketch -->
    <desc>Created with Sketch.</desc>
    <defs></defs>
    <g id="Page-1" stroke="none" stroke-width="1" fill="none" fill-rule="evenodd">
        <g id="Join-or-Create" transform="translate(-36.000000, -725.000000)" fill-rule="nonzero" fill="#FFFFFF">
            <g id="Group-3" transform="translate(320.000000, 733.500000) scale(-1, 1) translate(-320.000000, -733.500000) translate(36.000000, 725.000000)">
                <g id="noun_914343_cc" transform="translate(284.000000, 8.500000) scale(1, -1) rotate(-90.000000) translate(-284.000000, -8.500000) translate(275.500000, -275.500000)">
                    <g id="Group">
                        <g id="Shape">
                            <g>
                                <path d="M9.83429023,53.3658469 L9.83429023,36.8918637 C9.83429023,36.0647428 9.10046328,35.3942288 8.19524186,35.3942288 C7.29002044,35.3942288 6.55619349,36.0647428 6.55619349,36.8918637 L6.55619349,53.3658469 C6.55619349,54.1929677 7.29002044,54.8634817 8.19524186,54.8634817 C9.10046328,54.8634817 9.83429023,54.1929677 9.83429023,53.3658469 Z"></path>
                                <path d="M9.83429023,69.3658469 L9.83429023,52.8918637 C9.83429023,52.0647428 9.10046328,51.3942288 8.19524186,51.3942288 C7.29002044,51.3942288 6.55619349,52.0647428 6.55619349,52.8918637 L6.55619349,69.3658469 C6.55619349,70.1929677 7.29002044,70.8634817 8.19524186,70.8634817 C9.10046328,70.8634817 9.83429023,70.1929677 9.83429023,69.3658469 Z"></path>
                                <path d="M9.83429023,87.3658469 L9.83429023,70.8918637 C9.83429023,70.0647428 9.10046328,69.3942288 8.19524186,69.3942288 C7.29002044,69.3942288 6.55619349,70.0647428 6.55619349,70.8918637 L6.55619349,87.3658469 C6.55619349,88.1929677 7.29002044,88.8634817 8.19524186,88.8634817 C9.10046328,88.8634817 9.83429023,88.1929677 9.83429023,87.3658469 Z"></path>
                                <path d="M9.83429023,103.365847 L9.83429023,92.8918637 C9.83429023,92.0647428 9.10046328,91.3942288 8.19524186,91.3942288 C7.29002044,91.3942288 6.55619349,92.0647428 6.55619349,92.8918637 C6.55619349,95.3956329 6.55619349,97.2734598 6.55619349,98.5253444 C6.55619349,100.934345 6.55619349,104.547846 6.55619349,109.365847 C6.55619349,110.192968 7.29002044,110.863482 8.19524186,110.863482 C9.10046328,110.863482 9.83429023,104.192968 9.83429023,103.365847 Z"></path>
                                <path d="M9.83429023,105.365847 L9.83429023,88.8918637 C9.83429023,88.0647428 9.10046328,87.3942288 8.19524186,87.3942288 C7.29002044,87.3942288 6.55619349,88.0647428 6.55619349,88.8918637 L6.55619349,105.365847 C6.55619349,106.192968 7.29002044,106.863482 8.19524186,106.863482 C9.10046328,106.863482 9.83429023,106.192968 9.83429023,105.365847 Z"></path>
                                <path d="M9.83429023,119.365847 L9.83429023,102.891864 C9.83429023,102.064743 9.10046328,101.394229 8.19524186,101.394229 C7.29002044,101.394229 6.55619349,102.064743 6.55619349,102.891864 L6.55619349,119.365847 C6.55619349,120.192968 7.29002044,120.863482 8.19524186,120.863482 C9.10046328,120.863482 9.83429023,120.192968 9.83429023,119.365847 Z"></path>
                                <path d="M9.83429023,129.365847 L9.83429023,112.891864 C9.83429023,112.064743 9.10046328,111.394229 8.19524186,111.394229 C7.29002044,111.394229 6.55619349,112.064743 6.55619349,112.891864 L6.55619349,129.365847 C6.55619349,130.192968 7.29002044,130.863482 8.19524186,130.863482 C9.10046328,130.863482 9.83429023,130.192968 9.83429023,129.365847 Z"></path>
                                <path d="M9.83429023,139.365847 L9.83429023,122.891864 C9.83429023,122.064743 9.10046328,121.394229 8.19524186,121.394229 C7.29002044,121.394229 6.55619349,122.064743 6.55619349,122.891864 L6.55619349,139.365847 C6.55619349,140.192968 7.29002044,140.863482 8.19524186,140.863482 C9.10046328,140.863482 9.83429023,140.192968 9.83429023,139.365847 Z"></path>
                                <path d="M9.83429023,149.365847 L9.83429023,132.891864 C9.83429023,132.064743 9.10046328,131.394229 8.19524186,131.394229 C7.29002044,131.394229 6.55619349,132.064743 6.55619349,132.891864 L6.55619349,149.365847 C6.55619349,150.192968 7.29002044,150.863482 8.19524186,150.863482 C9.10046328,150.863482 9.83429023,150.192968 9.83429023,149.365847 Z"></path>
                                <path d="M9.83429023,159.365847 L9.83429023,142.891864 C9.83429023,142.064743 9.10046328,141.394229 8.19524186,141.394229 C7.29002044,141.394229 6.55619349,142.064743 6.55619349,142.891864 L6.55619349,159.365847 C6.55619349,160.192968 7.29002044,160.863482 8.19524186,160.863482 C9.10046328,160.863482 9.83429023,160.192968 9.83429023,159.365847 Z"></path>
                                <path d="M9.83429023,169.365847 L9.83429023,152.891864 C9.83429023,152.064743 9.10046328,151.394229 8.19524186,151.394229 C7.29002044,151.394229 6.55619349,152.064743 6.55619349,152.891864 L6.55619349,169.365847 C6.55619349,170.192968 7.29002044,170.863482 8.19524186,170.863482 C9.10046328,170.863482 9.83429023,170.192968 9.83429023,169.365847 Z"></path>
                                <path d="M9.83429023,179.365847 L9.83429023,162.891864 C9.83429023,162.064743 9.10046328,161.394229 8.19524186,161.394229 C7.29002044,161.394229 6.55619349,162.064743 6.55619349,162.891864 L6.55619349,179.365847 C6.55619349,180.192968 7.29002044,180.863482 8.19524186,180.863482 C9.10046328,180.863482 9.83429023,180.192968 9.83429023,179.365847 Z"></path>
                                <path d="M9.83429023,189.365847 L9.83429023,172.891864 C9.83429023,172.064743 9.10046328,171.394229 8.19524186,171.394229 C7.29002044,171.394229 6.55619349,172.064743 6.55619349,172.891864 L6.55619349,189.365847 C6.55619349,190.192968 7.29002044,190.863482 8.19524186,190.863482 C9.10046328,190.863482 9.83429023,190.192968 9.83429023,189.365847 Z"></path>
                                <path d="M9.83429023,199.365847 L9.83429023,182.891864 C9.83429023,182.064743 9.10046328,181.394229 8.19524186,181.394229 C7.29002044,181.394229 6.55619349,182.064743 6.55619349,182.891864 L6.55619349,199.365847 C6.55619349,200.192968 7.29002044,200.863482 8.19524186,200.863482 C9.10046328,200.863482 9.83429023,200.192968 9.83429023,199.365847 Z"></path>
                                <path d="M9.83429023,219.365847 L9.83429023,202.891864 C9.83429023,202.064743 9.10046328,201.394229 8.19524186,201.394229 C7.29002044,201.394229 6.55619349,202.064743 6.55619349,202.891864 L6.55619349,219.365847 C6.55619349,220.192968 7.29002044,220.863482 8.19524186,220.863482 C9.10046328,220.863482 9.83429023,220.192968 9.83429023,219.365847 Z"></path>
                                <path d="M9.83429023,209.365847 L9.83429023,192.891864 C9.83429023,192.064743 9.10046328,191.394229 8.19524186,191.394229 C7.29002044,191.394229 6.55619349,192.064743 6.55619349,192.891864 L6.55619349,209.365847 C6.55619349,210.192968 7.29002044,210.863482 8.19524186,210.863482 C9.10046328,210.863482 9.83429023,210.192968 9.83429023,209.365847 Z"></path>
                                <path d="M9.83429023,229.365847 L9.83429023,212.891864 C9.83429023,212.064743 9.10046328,211.394229 8.19524186,211.394229 C7.29002044,211.394229 6.55619349,212.064743 6.55619349,212.891864 L6.55619349,229.365847 C6.55619349,230.192968 7.29002044,230.863482 8.19524186,230.863482 C9.10046328,230.863482 9.83429023,230.192968 9.83429023,229.365847 Z"></path>
                                <path d="M9.83429023,239.365847 L9.83429023,222.891864 C9.83429023,222.064743 9.10046328,221.394229 8.19524186,221.394229 C7.29002044,221.394229 6.55619349,222.064743 6.55619349,222.891864 L6.55619349,239.365847 C6.55619349,240.192968 7.29002044,240.863482 8.19524186,240.863482 C9.10046328,240.863482 9.83429023,240.192968 9.83429023,239.365847 Z"></path>
                                <path d="M9.83429023,256.365847 L9.83429023,239.891864 C9.83429023,239.064743 9.10046328,238.394229 8.19524186,238.394229 C7.29002044,238.394229 6.55619349,239.064743 6.55619349,239.891864 L6.55619349,256.365847 C6.55619349,257.192968 7.29002044,257.863482 8.19524186,257.863482 C9.10046328,257.863482 9.83429023,257.192968 9.83429023,256.365847 Z"></path>
                                <path d="M9.83429023,274.365847 L9.83429023,257.891864 C9.83429023,257.064743 9.10046328,256.394229 8.19524186,256.394229 C7.29002044,256.394229 6.55619349,257.064743 6.55619349,257.891864 L6.55619349,274.365847 C6.55619349,275.192968 7.29002044,275.863482 8.19524186,275.863482 C9.10046328,275.863482 9.83429023,275.192968 9.83429023,274.365847 Z"></path>
                                <path d="M9.83429023,286.365847 L9.83429023,269.891864 C9.83429023,269.064743 9.10046328,268.394229 8.19524186,268.394229 C7.29002044,268.394229 6.55619349,269.064743 6.55619349,269.891864 L6.55619349,286.365847 C6.55619349,287.192968 7.29002044,287.863482 8.19524186,287.863482 C9.10046328,287.863482 9.83429023,287.192968 9.83429023,286.365847 Z"></path>
                                <path d="M9.83429023,296.365847 L9.83429023,279.891864 C9.83429023,279.064743 9.10046328,278.394229 8.19524186,278.394229 C7.29002044,278.394229 6.55619349,279.064743 6.55619349,279.891864 L6.55619349,296.365847 C6.55619349,297.192968 7.29002044,297.863482 8.19524186,297.863482 C9.10046328,297.863482 9.83429023,297.192968 9.83429023,296.365847 Z"></path>
                                <path d="M9.83429023,306.365847 L9.83429023,289.891864 C9.83429023,289.064743 9.10046328,288.394229 8.19524186,288.394229 C7.29002044,288.394229 6.55619349,289.064743 6.55619349,289.891864 L6.55619349,306.365847 C6.55619349,307.192968 7.29002044,307.863482 8.19524186,307.863482 C9.10046328,307.863482 9.83429023,307.192968 9.83429023,306.365847 Z"></path>
                                <path d="M9.83429023,316.365847 L9.83429023,299.891864 C9.83429023,299.064743 9.10046328,298.394229 8.19524186,298.394229 C7.29002044,298.394229 6.55619349,299.064743 6.55619349,299.891864 L6.55619349,316.365847 C6.55619349,317.192968 7.29002044,317.863482 8.19524186,317.863482 C9.10046328,317.863482 9.83429023,317.192968 9.83429023,316.365847 Z"></path>
                                <path d="M9.83429023,326.365847 L9.83429023,309.891864 C9.83429023,309.064743 9.10046328,308.394229 8.19524186,308.394229 C7.29002044,308.394229 6.55619349,309.064743 6.55619349,309.891864 L6.55619349,326.365847 C6.55619349,327.192968 7.29002044,327.863482 8.19524186,327.863482 C9.10046328,327.863482 9.83429023,327.192968 9.83429023,326.365847 Z"></path>
                                <path d="M9.83429023,336.365847 L9.83429023,319.891864 C9.83429023,319.064743 9.10046328,318.394229 8.19524186,318.394229 C7.29002044,318.394229 6.55619349,319.064743 6.55619349,319.891864 L6.55619349,336.365847 C6.55619349,337.192968 7.29002044,337.863482 8.19524186,337.863482 C9.10046328,337.863482 9.83429023,337.192968 9.83429023,336.365847 Z"></path>
                                <path d="M9.83429023,346.365847 L9.83429023,329.891864 C9.83429023,329.064743 9.10046328,328.394229 8.19524186,328.394229 C7.29002044,328.394229 6.55619349,329.064743 6.55619349,329.891864 L6.55619349,346.365847 C6.55619349,347.192968 7.29002044,347.863482 8.19524186,347.863482 C9.10046328,347.863482 9.83429023,347.192968 9.83429023,346.365847 Z"></path>
                                <path d="M9.83429023,356.365847 L9.83429023,339.891864 C9.83429023,339.064743 9.10046328,338.394229 8.19524186,338.394229 C7.29002044,338.394229 6.55619349,339.064743 6.55619349,339.891864 L6.55619349,356.365847 C6.55619349,357.192968 7.29002044,357.863482 8.19524186,357.863482 C9.10046328,357.863482 9.83429023,357.192968 9.83429023,356.365847 Z"></path>
                                <path d="M9.83429023,366.365847 L9.83429023,349.891864 C9.83429023,349.064743 9.10046328,348.394229 8.19524186,348.394229 C7.29002044,348.394229 6.55619349,349.064743 6.55619349,349.891864 L6.55619349,366.365847 C6.55619349,367.192968 7.29002044,367.863482 8.19524186,367.863482 C9.10046328,367.863482 9.83429023,367.192968 9.83429023,366.365847 Z"></path>
                                <path d="M9.83429023,376.365847 L9.83429023,359.891864 C9.83429023,359.064743 9.10046328,358.394229 8.19524186,358.394229 C7.29002044,358.394229 6.55619349,359.064743 6.55619349,359.891864 L6.55619349,376.365847 C6.55619349,377.192968 7.29002044,377.863482 8.19524186,377.863482 C9.10046328,377.863482 9.83429023,377.192968 9.83429023,376.365847 Z"></path>
                                <path d="M9.83429023,386.365847 L9.83429023,369.891864 C9.83429023,369.064743 9.10046328,368.394229 8.19524186,368.394229 C7.29002044,368.394229 6.55619349,369.064743 6.55619349,369.891864 L6.55619349,386.365847 C6.55619349,387.192968 7.29002044,387.863482 8.19524186,387.863482 C9.10046328,387.863482 9.83429023,387.192968 9.83429023,386.365847 Z"></path>
                                <path d="M9.83429023,396.365847 L9.83429023,379.891864 C9.83429023,379.064743 9.10046328,378.394229 8.19524186,378.394229 C7.29002044,378.394229 6.55619349,379.064743 6.55619349,379.891864 L6.55619349,396.365847 C6.55619349,397.192968 7.29002044,397.863482 8.19524186,397.863482 C9.10046328,397.863482 9.83429023,397.192968 9.83429023,396.365847 Z"></path>
                                <path d="M9.83429023,420.365847 L9.83429023,403.891864 C9.83429023,403.064743 9.10046328,402.394229 8.19524186,402.394229 C7.29002044,402.394229 6.55619349,403.064743 6.55619349,403.891864 L6.55619349,420.365847 C6.55619349,421.192968 7.29002044,421.863482 8.19524186,421.863482 C9.10046328,421.863482 9.83429023,421.192968 9.83429023,420.365847 Z"></path>
                                <path d="M9.83429023,451.365847 L9.83429023,434.891864 C9.83429023,434.064743 9.10046328,433.394229 8.19524186,433.394229 C7.29002044,433.394229 6.55619349,434.064743 6.55619349,434.891864 L6.55619349,451.365847 C6.55619349,452.192968 7.29002044,452.863482 8.19524186,452.863482 C9.10046328,452.863482 9.83429023,452.192968 9.83429023,451.365847 Z"></path>
                                <path d="M9.83429023,460.365847 L9.83429023,443.891864 C9.83429023,443.064743 9.10046328,442.394229 8.19524186,442.394229 C7.29002044,442.394229 6.55619349,443.064743 6.55619349,443.891864 L6.55619349,460.365847 C6.55619349,461.192968 7.29002044,461.863482 8.19524186,461.863482 C9.10046328,461.863482 9.83429023,461.192968 9.83429023,460.365847 Z"></path>
                                <path d="M9.83429023,470.365847 L9.83429023,453.891864 C9.83429023,453.064743 9.10046328,452.394229 8.19524186,452.394229 C7.29002044,452.394229 6.55619349,453.064743 6.55619349,453.891864 L6.55619349,470.365847 C6.55619349,471.192968 7.29002044,471.863482 8.19524186,471.863482 C9.10046328,471.863482 9.83429023,471.192968 9.83429023,470.365847 Z"></path>
                                <path d="M9.83429023,480.365847 L9.83429023,463.891864 C9.83429023,463.064743 9.10046328,462.394229 8.19524186,462.394229 C7.29002044,462.394229 6.55619349,463.064743 6.55619349,463.891864 L6.55619349,480.365847 C6.55619349,481.192968 7.29002044,481.863482 8.19524186,481.863482 C9.10046328,481.863482 9.83429023,481.192968 9.83429023,480.365847 Z"></path>
                                <path d="M9.83429023,490.365847 L9.83429023,473.891864 C9.83429023,473.064743 9.10046328,472.394229 8.19524186,472.394229 C7.29002044,472.394229 6.55619349,473.064743 6.55619349,473.891864 L6.55619349,490.365847 C6.55619349,491.192968 7.29002044,491.863482 8.19524186,491.863482 C9.10046328,491.863482 9.83429023,491.192968 9.83429023,490.365847 Z"></path>
                                <path d="M9.83429023,500.365847 L9.83429023,483.891864 C9.83429023,483.064743 9.10046328,482.394229 8.19524186,482.394229 C7.29002044,482.394229 6.55619349,483.064743 6.55619349,483.891864 L6.55619349,500.365847 C6.55619349,501.192968 7.29002044,501.863482 8.19524186,501.863482 C9.10046328,501.863482 9.83429023,501.192968 9.83429023,500.365847 Z"></path>
                                <path d="M9.83429023,518.365847 L9.83429023,501.891864 C9.83429023,501.064743 9.10046328,500.394229 8.19524186,500.394229 C7.29002044,500.394229 6.55619349,501.064743 6.55619349,501.891864 L6.55619349,518.365847 C6.55619349,519.192968 7.29002044,519.863482 8.19524186,519.863482 C9.10046328,519.863482 9.83429023,519.192968 9.83429023,518.365847 Z"></path>
                                <path d="M9.83429023,528.365847 L9.83429023,511.891864 C9.83429023,511.064743 9.10046328,510.394229 8.19524186,510.394229 C7.29002044,510.394229 6.55619349,511.064743 6.55619349,511.891864 L6.55619349,528.365847 C6.55619349,529.192968 7.29002044,529.863482 8.19524186,529.863482 C9.10046328,529.863482 9.83429023,529.192968 9.83429023,528.365847 Z"></path>
                                <path d="M9.83429023,538.365847 L9.83429023,521.891864 C9.83429023,521.064743 9.10046328,520.394229 8.19524186,520.394229 C7.29002044,520.394229 6.55619349,521.064743 6.55619349,521.891864 L6.55619349,538.365847 C6.55619349,539.192968 7.29002044,539.863482 8.19524186,539.863482 C9.10046328,539.863482 9.83429023,539.192968 9.83429023,538.365847 Z"></path>
                                <path d="M9.83429023,556.365847 L9.83429023,539.891864 C9.83429023,539.064743 9.10046328,538.394229 8.19524186,538.394229 C7.29002044,538.394229 6.55619349,539.064743 6.55619349,539.891864 L6.55619349,556.365847 C6.55619349,557.192968 7.29002044,557.863482 8.19524186,557.863482 C9.10046328,557.863482 9.83429023,557.192968 9.83429023,556.365847 Z"></path>
                                <path d="M9.83429023,566.365847 L9.83429023,549.891864 C9.83429023,549.064743 9.10046328,548.394229 8.19524186,548.394229 C7.29002044,548.394229 6.55619349,549.064743 6.55619349,549.891864 L6.55619349,566.365847 C6.55619349,567.192968 7.29002044,567.863482 8.19524186,567.863482 C9.10046328,567.863482 9.83429023,567.192968 9.83429023,566.365847 Z"></path>
                                <path d="M9.83429023,406.365847 L9.83429023,389.891864 C9.83429023,389.064743 9.10046328,388.394229 8.19524186,388.394229 C7.29002044,388.394229 6.55619349,389.064743 6.55619349,389.891864 L6.55619349,406.365847 C6.55619349,407.192968 7.29002044,407.863482 8.19524186,407.863482 C9.10046328,407.863482 9.83429023,407.192968 9.83429023,406.365847 Z"></path>
                                <path d="M9.83429023,436.365847 L9.83429023,419.891864 C9.83429023,419.064743 9.10046328,418.394229 8.19524186,418.394229 C7.29002044,418.394229 6.55619349,419.064743 6.55619349,419.891864 L6.55619349,436.365847 C6.55619349,437.192968 7.29002044,437.863482 8.19524186,437.863482 C9.10046328,437.863482 9.83429023,437.192968 9.83429023,436.365847 Z"></path>
                                <path d="M9.83429023,406.365847 L9.83429023,389.891864 C9.83429023,389.064743 9.10046328,388.394229 8.19524186,388.394229 C7.29002044,388.394229 6.55619349,389.064743 6.55619349,389.891864 L6.55619349,406.365847 C6.55619349,407.192968 7.29002044,407.863482 8.19524186,407.863482 C9.10046328,407.863482 9.83429023,407.192968 9.83429023,406.365847 Z"></path>
                                <path d="M13.112387,3.94389724 L13.112387,24.910785 C13.112387,26.5652451 11.644972,27.9060546 9.83429023,27.9060546 L6.55619349,27.9060546 C4.74551176,27.9060546 3.27809674,26.5652451 3.27809674,24.910785 L3.27809674,3.94389724 L13.112387,3.94389724 Z M9.83429023,30.9013243 C13.4554148,30.9013243 16.3904837,28.2194867 16.3904837,24.910785 L16.3904837,2.44626241 C16.3904837,1.6191416 15.6566568,0.948627569 14.7514353,0.948627569 L1.63904837,0.948627569 C0.733826952,0.948627569 0,1.6191416 0,2.44626241 L0,24.910785 C0,28.2194867 2.93506892,30.9013243 6.55619349,30.9013243 L9.83429023,30.9013243 Z"></path>
                                <path d="M9.83429023,27.9060546 L6.55619349,27.9060546 C6.21080346,27.9060546 5.85424865,27.8434869 5.46779379,27.717536 C4.40048253,27.3696847 3.27809674,28.0927183 3.27809674,29.1281247 L3.27809674,34.6379232 C3.27809674,36.7099641 5.11706409,38.3894985 7.38555196,38.3894985 L9.00493176,38.3894985 C11.2734196,38.3894985 13.112387,36.7099641 13.112387,34.6379232 L13.112387,29.1281247 C13.112387,28.0927183 11.9900012,27.3696847 10.9226899,27.717536 C10.5362351,27.8434869 10.1796803,27.9060546 9.83429023,27.9060546 Z M9.83429023,30.9013243 L9.83429023,34.6379232 C9.83429023,35.0554145 9.4633134,35.3942288 9.00493176,35.3942288 L7.38555196,35.3942288 C6.92717032,35.3942288 6.55619349,35.0554145 6.55619349,34.6379232 L6.55619349,30.9013243 L9.83429023,30.9013243 Z"></path>
                            </g>
                        </g>
                    </g>
                </g>
            </g>
        </g>
    </g>
</svg>
