<svg width="270px" height="50px" viewBox="0 0 270 50" version="1.1" xmlns="http://www.w3.org/2000/svg" xmlns:xlink="http://www.w3.org/1999/xlink">
    <!-- Generator: Sketch 45.1 (43504) - http://www.bohemiancoding.com/sketch -->
    <desc>Created with Sketch.</desc>
    <defs></defs>
    <g id="Page-1" stroke="none" stroke-width="1" fill="none" fill-rule="evenodd">
        <g id="Launch-Page" transform="translate(-109.000000, -408.000000)" fill-rule="nonzero">
            <g id="Group-5" transform="translate(51.000000, 249.000000)">
                <g id="Group-2">
                    <g id="log_in-desktop" transform="translate(58.000000, 159.000000)">
                        <path d="M270,25 C270,38.8 258.8,50 245,50 L25,50 C11.2,50 0,38.8 0,25 L0,25 C0,11.2 11.2,0 25,0 L245,0 C258.8,0 270,11.2 270,25 L270,25 Z" id="Shape" fill="#648F00"></path>
                        <g id="Group" transform="translate(29.000000, 13.000000)" fill="#FFFFFF">
                            <path d="M11.9,0.1 C5.6,0.1 0.5,5.2 0.5,11.5 C0.5,17.8 5.6,22.9 11.9,22.9 C18.2,22.9 23.3,17.8 23.3,11.5 C23.2,5.2 18.1,0.1 11.9,0.1 Z M17.1,16.5 C16.9,16.8 16.5,16.9 16.1,16.7 C13.4,15.1 10.1,14.7 6.1,15.6 C5.7,15.7 5.3,15.4 5.3,15.1 C5.2,14.7 5.5,14.3 5.8,14.3 C10.1,13.3 13.8,13.7 16.8,15.6 C17.2,15.7 17.3,16.1 17.1,16.5 Z M18.5,13.4 C18.2,13.8 17.7,13.9 17.3,13.7 C14.2,11.8 9.6,11.3 6,12.4 C5.5,12.5 5,12.3 4.9,11.8 C4.8,11.3 5,10.8 5.5,10.7 C9.6,9.4 14.8,10.1 18.3,12.2 C18.6,12.4 18.7,13 18.5,13.4 Z M18.6,10.2 C14.9,8 8.9,7.8 5.4,8.9 C4.8,9.1 4.2,8.8 4.1,8.2 C3.9,7.6 4.2,7 4.8,6.9 C8.8,5.7 15.5,5.9 19.7,8.4 C20.2,8.7 20.4,9.4 20.1,9.9 C19.7,10.3 19.1,10.5 18.6,10.2 Z" id="Shape"></path>
                            <g transform="translate(34.000000, 6.000000)" id="Shape">
                                <polygon points="0.2 11.6 0.2 0.9 2.1 0.9 2.1 9.9 6.8 9.9 6.8 11.5 0.2 11.5"></polygon>
                                <path d="M8.3,6.3 C8.3,3.1 10.6,0.8 13.8,0.8 C17,0.8 19.3,3.1 19.3,6.3 C19.3,9.5 17,11.8 13.8,11.8 C10.6,11.8 8.3,9.5 8.3,6.3 Z M17.3,6.3 C17.3,4.1 15.9,2.4 13.8,2.4 C11.6,2.4 10.3,4 10.3,6.3 C10.3,8.5 11.7,10.2 13.8,10.2 C15.9,10.1 17.3,8.5 17.3,6.3 Z"></path>
                                <path d="M21.4,6.3 C21.4,2.9 23.9,0.8 27,0.8 C29.1,0.8 30.4,1.8 31.3,3 L29.8,3.9 C29.2,3.1 28.2,2.5 27,2.5 C24.9,2.5 23.3,4.1 23.3,6.4 C23.3,8.6 24.9,10.3 27,10.3 C28.1,10.3 29,9.8 29.5,9.3 L29.5,7.7 L26.3,7.7 L26.3,6.1 L31.4,6.1 L31.4,10.1 C30.4,11.3 28.9,12.1 27,12.1 C23.9,11.8 21.4,9.6 21.4,6.3 Z"></path>
                                <polygon points="39 11.6 39 0.9 40.9 0.9 40.9 11.6 39 11.6"></polygon>
                                <polygon points="51.4 11.6 45.8 4 45.8 11.6 44 11.6 44 0.9 45.9 0.9 51.4 8.3 51.4 0.9 53.3 0.9 53.3 11.6 51.4 11.6"></polygon>
                                <polygon points="69.4 11.6 67.3 3.7 65.2 11.6 63.2 11.6 60.2 0.9 62.3 0.9 64.4 9.1 66.6 0.9 68.1 0.9 70.3 9.1 72.4 0.9 74.5 0.9 71.4 11.6"></polygon>
                                <polygon points="76.5 11.6 76.5 0.9 78.4 0.9 78.4 11.6 76.5 11.6"></polygon>
                                <polygon points="84 11.6 84 2.6 80.8 2.6 80.8 1 89.1 1 89.1 2.6 85.9 2.6 85.9 11.6"></polygon>
                                <polygon points="98.9 11.6 98.9 6.9 93.3 6.9 93.3 11.6 91.4 11.6 91.4 0.9 93.3 0.9 93.3 5.3 98.9 5.3 98.9 0.9 100.8 0.9 100.8 11.6 98.9 11.6"></polygon>
                                <path d="M108,10.1 L109.1,8.6 C109.8,9.4 111,10.1 112.5,10.1 C114,10.1 114.6,9.3 114.6,8.6 C114.6,6.4 108.4,7.8 108.4,3.8 C108.4,2 109.9,0.7 112.3,0.7 C113.9,0.7 115.3,1.2 116.3,2.2 L115.2,3.6 C114.4,2.8 113.2,2.4 112.1,2.4 C111,2.4 110.3,2.9 110.3,3.7 C110.3,5.7 116.5,4.5 116.5,8.4 C116.5,10.2 115.2,11.7 112.4,11.7 C110.4,11.8 109,11.1 108,10.1 Z"></path>
                                <path d="M119,11.6 L119,0.9 L123.7,0.9 C125.9,0.9 127.2,2.4 127.2,4.2 C127.2,6 126,7.5 123.7,7.5 L120.9,7.5 L120.9,11.5 L119,11.5 L119,11.6 Z M125.3,4.3 C125.3,3.3 124.5,2.6 123.5,2.6 L120.9,2.6 L120.9,6 L123.5,6 C124.5,6 125.3,5.3 125.3,4.3 Z"></path>
                                <path d="M129.1,6.3 C129.1,3.1 131.4,0.8 134.6,0.8 C137.8,0.8 140.1,3.1 140.1,6.3 C140.1,9.5 137.8,11.8 134.6,11.8 C131.4,11.8 129.1,9.5 129.1,6.3 Z M138.1,6.3 C138.1,4.1 136.7,2.4 134.6,2.4 C132.4,2.4 131.1,4 131.1,6.3 C131.1,8.5 132.5,10.2 134.6,10.2 C136.7,10.1 138.1,8.5 138.1,6.3 Z"></path>
                                <polygon points="144.8 11.6 144.8 2.6 141.6 2.6 141.6 1 149.9 1 149.9 2.6 146.7 2.6 146.7 11.6"></polygon>
                                <polygon points="152.3 11.6 152.3 0.9 154.2 0.9 154.2 11.6 152.3 11.6"></polygon>
                                <polygon points="157.2 11.6 157.2 0.9 164.5 0.9 164.5 2.5 159.1 2.5 159.1 5.3 164.4 5.3 164.4 7 159.1 7 159.1 11.6"></polygon>
                                <polygon points="170.1 11.6 170.1 7.2 166 1 168.1 1 171 5.6 173.9 1 176 1 171.9 7.2 171.9 11.6"></polygon>
                            </g>
                        </g>
                    </g>
                </g>
            </g>
        </g>
    </g>
</svg>
